<svg xmlns="http://www.w3.org/2000/svg" xmlns:xlink="http://www.w3.org/1999/xlink" version="1.1" viewBox="0 0 100 100" xml:space="preserve">
    <g>
        <path fill="white" d="M50,5.363c-19.112,0-34.607,15.494-34.607,34.607c0,13.821,8.103,25.743,19.814,31.29V51.292   c-2.412-3.143-3.863-7.062-3.863-11.322c0-10.287,8.369-18.656,18.656-18.656c10.288,0,18.655,8.369,18.655,18.656   c0,4.358-1.512,8.362-4.024,11.541v19.823c11.797-5.513,19.977-17.48,19.977-31.363C84.607,20.857,69.113,5.363,50,5.363z"/>
        <path fill="white" d="M50,29.29c-5.889,0-10.681,4.791-10.681,10.68v46.284h8.687V74.671h3.985v7.923h8.689V39.97   C60.681,34.081,55.889,29.29,50,29.29z"/>
        <rect x="51.991" y="86.628" fill="white" width="8.689" height="3.985"/>
        <rect x="39.319" y="90.567" fill="white" width="8.687" height="3.985"/>
    </g>
</svg>