<svg version="1.1" viewBox="0 0 640 640" xmlns="http://www.w3.org/2000/svg" xmlns:xlink="http://www.w3.org/1999/xlink">
<defs>
<path id="a" d="m584.78 0.16 2.93 0.19 2.86 0.28 2.78 0.35 2.7 0.43 2.62 0.51 2.55 0.59 2.46 0.66 2.39 0.74 2.31 0.83 2.23 0.9 2.15 0.97 2.08 1.06 2 1.14 1.91 1.21 1.84 1.29 1.76 1.37 1.69 1.45 1.6 1.53 1.53 1.6 1.45 1.68 1.37 1.77 1.29 1.84 1.21 1.91 1.14 2 1.05 2.07 0.98 2.16 0.9 2.23 0.83 2.31 0.74 2.39 0.66 2.46 0.59 2.55 0.51 2.62 0.43 2.7 0.35 2.78 0.28 2.86 0.19 2.93 0.12 3.01 0.04 3.1v516.04l-0.04 3.09-0.12 3.02-0.19 2.93-0.28 2.86-0.35 2.78-0.43 2.7-0.51 2.62-0.59 2.55-0.66 2.46-0.74 2.39-0.83 2.31-0.9 2.23-0.98 2.15-1.05 2.08-1.14 2-1.21 1.91-1.29 1.84-1.37 1.76-1.45 1.69-1.53 1.6-1.6 1.53-1.69 1.45-1.76 1.37-1.84 1.29-1.91 1.21-2 1.14-2.08 1.05-2.15 0.98-2.23 0.9-2.31 0.83-2.39 0.74-2.46 0.66-2.55 0.59-2.62 0.51-2.7 0.43-2.78 0.35-2.86 0.28-2.93 0.19-3.02 0.12-3.09 0.04h-516.04l-3.1-0.04-3.01-0.12-2.93-0.19-2.86-0.28-2.78-0.35-2.7-0.43-2.62-0.51-2.55-0.59-2.46-0.66-2.39-0.74-2.31-0.83-2.23-0.9-2.16-0.98-2.07-1.05-2-1.14-1.91-1.21-1.84-1.29-1.77-1.37-1.68-1.45-1.6-1.53-1.53-1.6-1.45-1.69-1.37-1.76-1.29-1.84-1.21-1.91-1.14-2-1.06-2.08-0.97-2.15-0.9-2.23-0.83-2.31-0.74-2.39-0.66-2.46-0.59-2.55-0.51-2.62-0.43-2.7-0.35-2.78-0.28-2.86-0.19-2.93-0.12-3.02-0.04-3.09v-516.04l0.04-3.1 0.12-3.01 0.19-2.93 0.28-2.86 0.35-2.78 0.43-2.7 0.51-2.62 0.59-2.55 0.66-2.46 0.74-2.39 0.83-2.31 0.9-2.23 0.97-2.16 1.06-2.07 1.14-2 1.21-1.91 1.29-1.84 1.37-1.77 1.45-1.68 1.53-1.6 1.6-1.53 1.68-1.45 1.77-1.37 1.84-1.29 1.91-1.21 2-1.14 2.07-1.06 2.16-0.97 2.23-0.9 2.31-0.83 2.39-0.74 2.46-0.66 2.55-0.59 2.62-0.51 2.7-0.43 2.78-0.35 2.86-0.28 2.93-0.19 3.01-0.12 3.1-0.04h516.04l3.09 0.04 3.02 0.12zm-80.84 297.96-1.11 0.01-1.11 0.02-1.1 0.03-1.11 0.03-1.09 0.04-1.1 0.05-2.18 0.1-1.09 0.07-2.16 0.14-1.08 0.08-1.07 0.09-1.08 0.09-1.07 0.1-3.18 0.33-2.12 0.26-1.05 0.13-1.04 0.14-1.05 0.15-1.04 0.15-1.04 0.16-1.04 0.17-2.06 0.34-1.03 0.19-1.02 0.19-1.03 0.19-1.02 0.2-2.02 0.42-1.01 0.22-2.02 0.46-1 0.23-1.98 0.5-0.99 0.26-0.98 0.26-0.97 0.27-0.97 0.28-0.96 0.28-0.95 0.29-0.95 0.3-0.94 0.3-0.94 0.31-1.86 0.64-0.91 0.34-0.92 0.33-1.8 0.7-0.9 0.36-0.89 0.36-0.88 0.37-0.88 0.38-0.87 0.39-0.86 0.39-0.86 0.4-0.85 0.4-0.85 0.41-0.84 0.42-0.84 0.43-0.82 0.43-0.83 0.44-0.81 0.44-0.81 0.45-0.81 0.46-0.8 0.47-0.79 0.47-0.79 0.48-0.78 0.49-0.77 0.49-0.77 0.5-0.76 0.5-0.76 0.52-0.75 0.52-0.74 0.52-0.73 0.54-0.72 0.54-0.72 0.55-0.71 0.55-0.7 0.56-0.69 0.57-1.36 1.16-0.67 0.59-0.66 0.6-0.65 0.6-0.64 0.61-0.64 0.62-0.63 0.62-0.62 0.64-0.61 0.63-1.2 1.3-0.59 0.66-0.58 0.67-0.57 0.67-0.56 0.68-0.56 0.69-0.55 0.69-0.54 0.71-0.53 0.7-0.53 0.72-0.51 0.72-0.51 0.73-1 1.48-0.48 0.75-0.48 0.76-0.47 0.76-0.46 0.77-0.45 0.78-0.45 0.79-0.43 0.79-0.43 0.8-0.41 0.81-0.4 0.81-0.39 0.83-0.38 0.83-0.37 0.84-0.36 0.84-0.35 0.86-0.34 0.86-0.32 0.87-0.32 0.88-0.3 0.88-0.29 0.9-0.28 0.9-0.27 0.9-0.26 0.92-0.25 0.92-0.24 0.93-0.22 0.94-0.22 0.95-0.2 0.96-0.19 0.96-0.19 0.97-0.17 0.98-0.16 0.98-0.15 0.99-0.13 1-0.13 1.01-0.12 1.02-0.1 1.02-0.1 1.04-0.08 1.03-0.07 1.05-0.06 1.06-0.05 1.06-0.04 1.07-0.03 1.08-0.01 1.08-0.01 1.1 0.01 1.39 0.03 1.39 0.05 1.37 0.07 1.37 0.09 1.35 0.12 1.35 0.13 1.33 0.15 1.33 0.17 1.31 0.19 1.3 0.22 1.3 0.23 1.28 0.25 1.27 0.27 1.26 0.3 1.26 0.31 1.24 0.33 1.23 0.36 1.22 0.37 1.21 0.4 1.2 0.41 1.19 0.43 1.18 0.46 1.17 0.47 1.16 0.5 1.15 0.51 1.14 0.54 1.13 0.56 1.11 0.57 1.11 0.6 1.1 0.62 1.09 0.63 1.07 0.66 1.07 0.68 1.06 0.69 1.04 0.72 1.04 0.74 1.02 0.76 1.02 0.78 1 0.79 1 0.82 0.98 0.84 0.98 0.86 0.97 0.89 0.97 0.9 0.95 0.92 0.95 0.95 0.94 0.96 0.93 0.99 0.93 1.01 0.91 1.03 0.91 1.05 0.91 1.07 0.89 1.09 0.89 1.11 0.88 1.13 0.87 1.16 0.86 1.17 0.86 1.2 0.85 1.22 0.84 1.23 0.83 1.26 0.83 1.28 0.82 1.3 0.81 1.33 0.8 1.34 0.8 1.36 0.79 1.39 0.78 1.4 0.77 1.43 0.77 1.45 0.76 1.47 0.75 1.49 0.74 1.51 0.73 1.53 0.73 1.55 0.72 1.57 0.71 1.6 0.71 1.61 0.7 1.64 0.69 0.64 0.26 0.65 0.26 0.64 0.27 1.28 0.52 0.63 0.27 1.26 0.52 0.63 0.27 0.63 0.26 2.48 1.04 0.61 0.27 0.62 0.26 1.22 0.52 0.6 0.26 0.61 0.26 1.2 0.52 0.59 0.25 0.6 0.26 2.36 1.04 0.58 0.25 1.16 0.52 0.58 0.25 0.58 0.26 0.57 0.26 0.57 0.25 0.57 0.26 0.56 0.25 0.57 0.26 0.56 0.26 0.56 0.25 0.56 0.26 0.55 0.25 0.55 0.26 0.54 0.25 0.55 0.26 0.53 0.26 0.54 0.26 0.53 0.25 0.52 0.26 0.53 0.26 0.52 0.26 1.53 0.78 0.5 0.27 1 0.52 0.49 0.27 0.49 0.26 0.48 0.26 0.49 0.27 0.47 0.26 0.48 0.27 0.46 0.27 0.47 0.26 0.92 0.54 0.45 0.27 0.45 0.26 0.45 0.27 1.32 0.81 0.43 0.27 0.43 0.28 1.26 0.81 0.41 0.28 0.41 0.27 0.4 0.28 0.4 0.27 0.4 0.28 0.78 0.56 0.76 0.56 0.38 0.29 0.37 0.28 0.36 0.29 0.36 0.28 0.36 0.29 1.05 0.87 0.34 0.3 0.33 0.29 0.34 0.3 0.32 0.29 0.33 0.3 0.32 0.3 0.62 0.6 0.61 0.61 0.3 0.31 0.29 0.3 0.29 0.31 0.84 0.93 0.27 0.32 0.27 0.31 0.26 0.32 0.26 0.31 0.75 0.96 0.48 0.64 0.46 0.66 0.22 0.32 0.21 0.34 0.21 0.33 0.2 0.33 0.2 0.34 0.38 0.68 0.18 0.35 0.17 0.34 0.17 0.35 0.16 0.35 0.16 0.36 0.15 0.35 0.28 0.72 0.26 0.72 0.12 0.37 0.22 0.74 0.1 0.37 0.1 0.38 0.18 0.76 0.08 0.38 0.07 0.38 0.07 0.39 0.12 0.78 0.05 0.39 0.04 0.39 0.04 0.4 0.06 0.8 0.02 0.41 0.01 0.4 0.01 0.41v0.41 0.3 0.31l-0.01 0.3-0.02 0.3-0.01 0.3-0.02 0.29-0.03 0.3-0.02 0.29-0.03 0.3-0.08 0.58-0.04 0.3-0.05 0.29-0.05 0.28-0.05 0.29-0.06 0.29-0.06 0.28-0.06 0.29-0.14 0.56-0.08 0.29-0.08 0.28-0.08 0.27-0.08 0.28-0.1 0.28-0.09 0.27-0.1 0.28-0.2 0.54-0.11 0.28-0.11 0.27-0.12 0.26-0.24 0.54-0.13 0.27-0.26 0.52-0.14 0.27-0.14 0.26-0.3 0.52-0.15 0.25-0.16 0.26-0.32 0.5-0.51 0.75-0.18 0.24-0.19 0.25-0.18 0.24-0.19 0.24-0.2 0.24-0.2 0.23-0.2 0.24-0.63 0.69-0.44 0.46-0.22 0.22-0.46 0.44-0.72 0.66-0.5 0.42-0.26 0.22-0.26 0.2-0.26 0.21-0.27 0.21-0.54 0.4-0.56 0.4-0.29 0.2-0.29 0.19-0.29 0.2-0.9 0.57-0.31 0.18-0.31 0.19-0.96 0.54-0.33 0.17-0.33 0.18-0.33 0.17-0.34 0.17-0.34 0.16-0.34 0.17-0.7 0.32-0.72 0.32-0.36 0.15-0.37 0.15-0.37 0.16-0.37 0.14-0.38 0.15-0.38 0.14-0.39 0.15-0.39 0.14-0.39 0.13-0.4 0.14-0.4 0.13-0.4 0.14-0.41 0.12-0.82 0.26-0.84 0.24-0.86 0.24-0.43 0.11-0.44 0.12-0.88 0.22-0.45 0.1-0.45 0.11-0.92 0.2-0.46 0.09-0.47 0.09-0.47 0.1-0.47 0.08-0.48 0.09-0.48 0.08-0.98 0.16-0.49 0.07-1 0.14-0.51 0.07-0.5 0.06-0.52 0.06-0.51 0.06-0.52 0.05-0.53 0.06-0.52 0.05-0.54 0.04-0.53 0.05-1.08 0.08-0.55 0.03-0.55 0.04-0.55 0.03-0.56 0.03-0.56 0.02-0.57 0.03-0.57 0.02-0.57 0.01-0.58 0.02-1.16 0.02-0.59 0.01h-0.6-0.59-1.02l-2.04-0.04-1.01-0.03-1.02-0.04-1.02-0.05-1.01-0.06-1.02-0.06-1.02-0.08-2.02-0.18-1.02-0.1-1.01-0.11-1.01-0.12-1.02-0.13-1.01-0.14-1.01-0.15-2.02-0.32-2.02-0.36-1.01-0.19-1.01-0.2-1-0.21-1.01-0.22-1.01-0.23-1-0.24-1.01-0.24-1.01-0.26-1-0.26-1.01-0.27-2-0.58-1.01-0.3-1-0.3-1-0.32-2-0.66-2-0.7-1-0.36-1-0.37-0.99-0.38-0.98-0.39-0.99-0.4-0.98-0.41-0.97-0.41-1.94-0.86-0.97-0.44-0.96-0.45-0.96-0.46-0.95-0.47-0.95-0.48-0.95-0.49-1.88-1-0.93-0.51-1.86-1.06-0.93-0.54-0.92-0.55-0.91-0.56-0.92-0.57-0.91-0.57-0.9-0.59-0.91-0.59-0.89-0.61-0.9-0.61-0.89-0.62-0.89-0.63-0.88-0.64-0.88-0.65-0.88-0.66-0.87-0.66-1.74-1.36-0.86-0.69-0.86-0.71-0.85-0.71v62.71l0.77 0.39 0.77 0.38 0.78 0.38 0.79 0.38 0.8 0.37 0.8 0.36 0.81 0.36 0.82 0.36 0.82 0.35 0.83 0.34 1.68 0.68 0.86 0.33 1.72 0.64 0.87 0.32 0.88 0.31 0.89 0.31 0.89 0.3 0.9 0.3 0.91 0.29 1.84 0.56 0.93 0.28 0.93 0.27 0.95 0.27 1.9 0.52 1.94 0.5 0.97 0.24 0.99 0.24 0.99 0.23 1 0.23 1 0.22 1.02 0.22 1.01 0.21 2.06 0.42 1.05 0.19 1.04 0.2 1.05 0.19 2.1 0.36 3.18 0.51 1.07 0.15 1.06 0.16 1.07 0.15 1.08 0.14 1.07 0.14 1.08 0.14 1.09 0.13 1.08 0.12 2.18 0.24 1.09 0.11 3.3 0.3 1.1 0.09 1.11 0.08 1.11 0.09 1.11 0.07 2.24 0.14 2.24 0.12 1.13 0.05 1.13 0.04 1.13 0.05 1.14 0.03 1.13 0.03 1.15 0.03 1.14 0.02 1.15 0.02 2.3 0.02h1.15 1.13l2.24-0.02 1.12-0.02 1.11-0.02 1.12-0.03 1.1-0.04 1.11-0.04 3.3-0.15 1.1-0.07 1.09-0.06 1.09-0.08 1.08-0.07 1.09-0.09 2.16-0.18 2.14-0.2 1.07-0.12 1.07-0.11 1.06-0.12 2.12-0.26 1.06-0.14 1.05-0.14 2.1-0.3 1.04-0.16 2.08-0.34 1.03-0.17 1.04-0.18 1.03-0.19 1.02-0.19 1.03-0.2 1.02-0.2 1.02-0.21 1.01-0.21 1.02-0.22 1-0.22 1-0.24 1.98-0.48 0.98-0.26 0.97-0.26 0.97-0.27 0.96-0.27 0.96-0.28 0.95-0.29 0.94-0.3 0.93-0.3 0.94-0.31 1.84-0.64 0.91-0.33 1.8-0.68 0.89-0.36 0.89-0.35 0.88-0.37 0.87-0.37 0.87-0.38 1.72-0.78 0.85-0.4 1.68-0.82 0.83-0.43 0.82-0.42 0.82-0.44 0.81-0.44 0.8-0.45 1.6-0.92 0.78-0.47 1.56-0.96 0.76-0.49 0.76-0.5 0.76-0.51 0.74-0.51 0.74-0.52 0.73-0.53 0.72-0.54 0.71-0.54 0.71-0.56 0.69-0.55 0.69-0.57 0.68-0.58 0.67-0.58 0.67-0.59 0.66-0.6 0.65-0.6 0.64-0.61 0.63-0.62 0.63-0.63 1.22-1.28 0.6-0.65 0.6-0.66 0.58-0.66 0.58-0.68 0.57-0.68 0.56-0.68 1.1-1.4 0.54-0.72 0.53-0.71 0.52-0.73 0.51-0.73 0.51-0.75 0.98-1.5 0.49-0.77 0.47-0.77 0.47-0.78 0.45-0.78 0.45-0.8 0.44-0.8 0.43-0.82 0.42-0.82 0.41-0.83 0.39-0.84 0.39-0.85 0.37-0.86 0.36-0.87 0.36-0.88 0.34-0.89 0.32-0.89 0.32-0.91 0.31-0.92 0.29-0.92 0.29-0.94 0.27-0.94 0.26-0.96 0.25-0.96 0.24-0.97 0.23-0.99 0.22-0.99 0.21-1 0.19-1.01 0.19-1.02 0.17-1.03 0.16-1.04 0.15-1.05 0.14-1.05 0.13-1.07 0.12-1.08 0.1-1.08 0.1-1.1 0.08-1.1 0.07-1.12 0.06-1.12 0.05-1.13 0.04-1.15 0.03-1.15 0.02-1.16v-1.17-0.85l-0.01-0.85-0.02-0.84-0.02-0.83-0.03-0.83-0.03-0.82-0.04-0.82-0.05-0.81-0.06-0.81-0.12-1.6-0.16-1.58-0.08-0.78-0.09-0.78-0.1-0.77-0.22-1.52-0.12-0.76-0.12-0.75-0.13-0.74-0.14-0.74-0.14-0.73-0.15-0.73-0.16-0.73-0.16-0.71-0.17-0.72-0.17-0.7-0.19-0.71-0.18-0.69-0.2-0.7-0.2-0.68-0.42-1.36-0.22-0.67-0.23-0.66-0.23-0.67-0.48-1.3-0.25-0.64-0.52-1.28-0.27-0.63-0.56-1.26-0.28-0.62-0.3-0.62-0.29-0.61-0.61-1.22-0.32-0.61-0.64-1.2-0.33-0.59-0.68-1.18-0.7-1.16-0.36-0.58-0.74-1.14-0.37-0.56-0.39-0.56-0.38-0.56-0.4-0.56-0.39-0.55-0.41-0.55-0.82-1.08-0.42-0.54-0.86-1.06-0.44-0.53-0.9-1.04-0.45-0.51-0.46-0.52-0.47-0.51-0.47-0.5-0.96-1-0.49-0.5-0.49-0.49-1-0.98-0.5-0.48-0.51-0.49-0.52-0.48-0.52-0.47-0.53-0.48-1.06-0.94-0.54-0.47-0.55-0.46-0.55-0.47-0.55-0.46-0.56-0.45-0.56-0.46-0.57-0.45-0.58-0.45-0.57-0.45-1.77-1.32-0.6-0.44-0.6-0.43-0.6-0.44-0.62-0.42-0.61-0.43-0.62-0.42-0.63-0.43-0.63-0.41-0.64-0.42-0.64-0.41-0.64-0.42-0.65-0.4-0.66-0.41-1.32-0.8-1.34-0.8-0.68-0.39-0.68-0.4-2.07-1.17-0.7-0.39-1.42-0.78-0.71-0.38-0.71-0.39-0.72-0.38-0.73-0.39-1.46-0.76-1.48-0.76-0.75-0.38-0.75-0.37-0.75-0.38-0.76-0.37-0.77-0.37-0.77-0.38-1.54-0.74-0.78-0.37-0.79-0.36-0.79-0.37-0.79-0.36-0.8-0.37-0.8-0.36-0.81-0.36-0.81-0.37-0.82-0.35-0.81-0.36-1.66-0.72-0.83-0.35-0.83-0.36-0.85-0.35-0.61-0.26-1.22-0.5-0.61-0.26-1.8-0.75-0.59-0.26-1.18-0.5-0.58-0.25-0.59-0.25-0.57-0.25-0.58-0.25-1.14-0.5-1.12-0.5-0.56-0.24-0.56-0.25-1.1-0.5-0.54-0.24-0.55-0.25-0.54-0.24-0.53-0.25-0.54-0.24-0.53-0.25-0.52-0.24-0.53-0.25-0.52-0.24-0.51-0.24-0.52-0.25-1.02-0.48-1.5-0.72-0.49-0.25-0.5-0.24-0.48-0.24-0.49-0.24-0.96-0.48-1.41-0.72-0.46-0.24-0.46-0.25-1.35-0.72-0.45-0.25-0.44-0.24-0.43-0.24-0.44-0.25-0.43-0.24-0.42-0.25-0.42-0.24-0.42-0.25-0.42-0.24-0.41-0.25-0.41-0.24-0.4-0.25-0.4-0.24-0.4-0.25-0.39-0.25-0.39-0.24-0.76-0.5-0.38-0.24-0.38-0.25-0.37-0.25-0.36-0.25-0.37-0.25-0.36-0.25-0.35-0.24-0.36-0.25-0.34-0.25-0.35-0.25-0.68-0.5-0.33-0.26-0.66-0.5-0.32-0.26-0.31-0.25-0.32-0.26-0.31-0.25-0.3-0.26-0.31-0.26-0.29-0.25-0.3-0.26-0.29-0.26-0.28-0.26-0.29-0.26-0.27-0.27-0.28-0.26-0.27-0.26-0.53-0.53-0.26-0.27-0.25-0.26-0.5-0.54-0.72-0.81-0.46-0.54-0.44-0.54-0.21-0.28-0.22-0.27-0.2-0.28-0.21-0.27-0.2-0.28-0.19-0.28-0.2-0.28-0.18-0.27-0.19-0.28-0.18-0.29-0.17-0.28-0.17-0.29-0.17-0.28-0.16-0.29-0.15-0.29-0.15-0.3-0.15-0.29-0.28-0.6-0.39-0.9-0.11-0.31-0.12-0.31-0.11-0.31-0.2-0.62-0.1-0.32-0.09-0.31-0.08-0.32-0.09-0.32-0.07-0.33-0.08-0.32-0.06-0.33-0.07-0.32-0.05-0.33-0.06-0.33-0.05-0.34-0.04-0.33-0.08-0.68-0.03-0.34-0.02-0.34-0.02-0.35-0.02-0.34-0.02-0.7v-0.35-0.33l0.02-0.64 0.01-0.31 0.02-0.32 0.03-0.31 0.02-0.32 0.03-0.31 0.08-0.62 0.04-0.3 0.05-0.31 0.05-0.3 0.18-0.9 0.07-0.3 0.08-0.3 0.07-0.29 0.08-0.29 0.27-0.87 0.1-0.28 0.1-0.29 0.33-0.84 0.12-0.28 0.13-0.28 0.12-0.27 0.13-0.27 0.14-0.28 0.14-0.27 0.14-0.26 0.3-0.54 0.48-0.78 0.34-0.52 0.18-0.25 0.18-0.26 0.18-0.25 0.19-0.25 0.18-0.24 0.2-0.25 0.19-0.24 0.2-0.25 0.2-0.24 0.21-0.24 0.21-0.23 0.21-0.24 0.66-0.69 0.23-0.23 0.23-0.22 0.23-0.23 0.72-0.66 0.25-0.21 0.25-0.22 0.26-0.21 0.25-0.21 0.26-0.21 0.27-0.21 0.27-0.2 0.27-0.21 0.27-0.2 0.56-0.4 0.29-0.19 0.29-0.2 0.58-0.38 0.6-0.38 0.31-0.18 0.31-0.19 0.31-0.18 0.32-0.18 0.32-0.17 0.32-0.18 0.32-0.17 0.33-0.17 0.34-0.17 0.33-0.17 0.34-0.16 0.35-0.16 0.34-0.16 0.35-0.16 0.36-0.16 0.35-0.15 0.36-0.15 0.74-0.3 0.37-0.14 0.37-0.15 1.14-0.42 0.78-0.26 0.4-0.14 0.4-0.12 0.8-0.26 0.82-0.24 0.42-0.12 0.42-0.11 0.42-0.12 0.42-0.11 0.43-0.11 0.44-0.11 0.43-0.1 0.44-0.11 0.44-0.1 0.45-0.1 0.44-0.1 0.45-0.09 0.46-0.09 0.45-0.09 0.46-0.09 1.38-0.24 0.47-0.07 0.47-0.08 0.47-0.07 0.48-0.07 0.47-0.06 0.48-0.06 0.48-0.07 0.49-0.05 0.48-0.06 0.98-0.1 0.5-0.05 0.49-0.04 0.5-0.05 0.5-0.04 0.51-0.03 0.5-0.04 1.02-0.06 0.52-0.03 0.51-0.02 1.56-0.06 2.12-0.04h0.54l0.53-0.01 0.4 0.01h0.39 0.39l0.4 0.01h0.4l1.6 0.04 0.4 0.02 0.4 0.01 0.41 0.02 0.4 0.02 1.23 0.06 0.41 0.03 0.41 0.02 0.82 0.06 0.84 0.06 0.41 0.03 0.42 0.04 0.42 0.03 1.26 0.12 0.43 0.04 0.42 0.05 0.43 0.04 0.42 0.05 0.43 0.04 0.86 0.1 0.43 0.06 0.43 0.05 0.44 0.06 0.43 0.05 0.44 0.06 0.43 0.06 0.88 0.12 0.43 0.07 0.44 0.06 0.44 0.07 0.43 0.07 0.88 0.14 0.44 0.08 0.43 0.07 1.32 0.24 0.43 0.08 0.44 0.08 0.88 0.18 0.44 0.08 0.44 0.09 0.43 0.1 0.88 0.18 2.64 0.6 2.64 0.66 0.44 0.12 0.44 0.11 1.32 0.36 0.44 0.13 0.44 0.12 2.2 0.65 0.43 0.14 0.44 0.13 0.43 0.14 0.44 0.14 0.86 0.28 0.44 0.15 0.43 0.14 2.15 0.75 0.43 0.16 0.43 0.15 0.42 0.16 0.86 0.32 0.42 0.17 0.43 0.16 0.42 0.17 0.43 0.17 1.68 0.68 2.52 1.08 0.42 0.19 0.41 0.18 0.42 0.19 0.82 0.38 0.41 0.2 0.41 0.19 0.4 0.2 0.41 0.19 1.2 0.6 0.4 0.21 0.4 0.2 0.39 0.21 0.39 0.2 0.4 0.21 0.39 0.21 0.38 0.22 0.78 0.42 2.28 1.32 0.74 0.46 0.38 0.22 0.36 0.23 0.37 0.23 0.37 0.24 0.36 0.23 0.37 0.24 0.36 0.23 0.72 0.48 0.35 0.24 0.36 0.25 0.35 0.24v-58.59l-0.71-0.27-0.72-0.27-0.73-0.27-1.46-0.52-0.73-0.25-1.48-0.5-0.74-0.24-2.25-0.72-0.76-0.23-1.52-0.44-1.54-0.44-0.77-0.21-1.56-0.42-0.78-0.2-0.79-0.19-0.79-0.2-0.79-0.19-0.8-0.19-1.6-0.36-0.81-0.18-1.62-0.34-0.82-0.17-1.64-0.32-3.32-0.6-0.84-0.14-0.85-0.14-0.84-0.13-0.85-0.13-0.86-0.13-0.86-0.12-0.87-0.12-0.88-0.12-0.88-0.11-0.89-0.12-0.9-0.1-0.9-0.11-0.9-0.1-0.92-0.1-1.84-0.18-0.94-0.09-0.93-0.08-1.9-0.16-0.96-0.08-0.96-0.07-0.97-0.06-0.98-0.07-0.98-0.06-0.99-0.06-0.99-0.05-1-0.05-2.02-0.1-1.02-0.04-1.03-0.04-1.03-0.03-2.08-0.06-1.05-0.02-1.06-0.03-1.06-0.01-1.07-0.02-2.16-0.02h-1.09l-1.09-0.01-1.12 0.01-1.11 0.01zm-356.14 57.7h80.04v229.12h63.73v-229.12h80.43v-51.45h-224.2v51.45z"/>
</defs>
<use fill="white" xlink:href="#a"/>
<use fill-opacity="0" stroke="#000000" stroke-opacity="0" xlink:href="#a"/>
</svg>
